# xmcd CD database file
#
# Track frame offsets:
#	150
#	10809
#	24796
#	41778
#	53523
#	67321
#	79562
#	95753
#	109187
#	123050
#	135597
#	146891
#	163762
#	174405
#	184362
#
# Disc length: 2710 seconds
#
# Revision: 0
# Processed by: cddbd v1.5.2PL0 Copyright (c) Steve Scherf et al.
# Submitted via: CDex 1.75
#
DISCID=ca0a940f
DTITLE=Bar D Wranglers - Little Mountain Church
DYEAR=2017
DGENRE=Country
TTITLE0=Are You Washed in the Blood
TTITLE1=Bringing in the Sheaves
TTITLE2=Love Lifted Me
TTITLE3=Leaning on the Everlasting Arms
TTITLE4=Shall We Gather at the River
TTITLE5=Keep on the Sunny Side
TTITLE6=Softly and Tenderly
TTITLE7=When the Roll is Called Up Yonder
TTITLE8=Amazing Grace
TTITLE9=Little Mountain Church
TTITLE10=Rock of Ages
TTITLE11=Swing Low, Sweet Chariot
TTITLE12=A Beautiful Life
TTITLE13=The Fourth Man
TTITLE14=The Unclouded Day
EXTD=YEAR: 2017
EXTT0=
EXTT1=
EXTT2=
EXTT3=
EXTT4=
EXTT5=
EXTT6=
EXTT7=
EXTT8=
EXTT9=
EXTT10=
EXTT11=
EXTT12=
EXTT13=
EXTT14=
PLAYORDER=
